<svg width="15" height="16" viewBox="0 0 15 16" fill="none" xmlns="http://www.w3.org/2000/svg">
<rect width="15" height="16" fill="#1E1E1E"/>
<path d="M-1095 -2524C-1095 -2525.1 -1094.1 -2526 -1093 -2526H10532C10533.1 -2526 10534 -2525.1 10534 -2524V12096C10534 12097.1 10533.1 12098 10532 12098H-1093C-1094.1 12098 -1095 12097.1 -1095 12096V-2524Z" fill="#404040"/>
<path d="M-1093 -2525H10532V-2527H-1093V-2525ZM10533 -2524V12096H10535V-2524H10533ZM10532 12097H-1093V12099H10532V12097ZM-1094 12096V-2524H-1096V12096H-1094ZM-1093 12097C-1093.55 12097 -1094 12096.6 -1094 12096H-1096C-1096 12097.7 -1094.66 12099 -1093 12099V12097ZM10533 12096C10533 12096.6 10532.6 12097 10532 12097V12099C10533.7 12099 10535 12097.7 10535 12096H10533ZM10532 -2525C10532.6 -2525 10533 -2524.55 10533 -2524H10535C10535 -2525.66 10533.7 -2527 10532 -2527V-2525ZM-1093 -2527C-1094.66 -2527 -1096 -2525.66 -1096 -2524H-1094C-1094 -2524.55 -1093.55 -2525 -1093 -2525V-2527Z" fill="white" fill-opacity="0.1"/>
<g clip-path="url(#clip0_0_1)">
<rect width="1920" height="9959" transform="translate(-294 -1938)" fill="white"/>
<rect width="1920" height="901.872" transform="translate(-294 -405)" fill="#E4FFFB" fill-opacity="0.5"/>
<g clip-path="url(#clip1_0_1)">
<rect x="-99.5" y="-277.174" width="226" height="328" rx="10" fill="white"/>
<rect x="-88.625" y="-8.81494" width="114.25" height="33.25" rx="5.625" stroke="#5854A8" stroke-width="1.25"/>
<g clip-path="url(#clip2_0_1)">
<path d="M3.125 2.18506C2.44184 2.18506 1.875 2.75189 1.875 3.43506C1.875 4.11822 1.875 12.1851 1.875 12.1851C-nan -nan -nan -nan -nan -nanC-nan -nan -nan -nan 1.875 12.1851C1.875 12.8682 2.44184 13.4351 3.125 13.4351H11.875C12.5582 13.4351 13.125 12.8682 13.125 12.1851V8.43506C13.125 8.08988 12.8452 7.81006 12.5 7.81006C12.1548 7.81006 11.875 8.08988 11.875 8.43506V10.1851C11.875 11.1279 11.875 11.5993 11.5821 11.8922C11.2892 12.1851 10.8178 12.1851 9.875 12.1851H5.125C4.18219 12.1851 3.71079 12.1851 3.41789 11.8922C3.125 11.5993 3.125 11.1279 3.125 10.1851V5.43506C3.125 4.49225 3.125 4.02085 3.41789 3.72795C3.71079 3.43506 4.18219 3.43506 5.125 3.43506H6.875C7.22018 3.43506 7.5 3.15524 7.5 2.81006C7.5 2.46488 7.22018 2.18506 6.875 2.18506H3.125ZM9.375 2.18506C9.02982 2.18506 8.75 2.46488 8.75 2.81006C8.75 3.15524 9.02982 3.43506 9.375 3.43506H9.40644C9.99126 3.43506 10.2841 4.14213 9.87061 4.55566L5.625 8.80127C5.38095 9.04532 5.38095 9.44101 5.625 9.68506C5.86905 9.92911 6.26474 9.92911 6.50879 9.68506L10.7544 5.43945C11.1679 5.02592 11.875 5.3188 11.875 5.90362V5.93506C11.875 6.28024 12.1548 6.56006 12.5 6.56006C12.8452 6.56006 13.125 6.28024 13.125 5.93506V4.18506C13.125 3.24225 13.125 2.77085 12.8321 2.47795C12.5392 2.18506 12.0678 2.18506 11.125 2.18506H9.375Z" fill="#5854A8"/>
</g>
</g>
</g>
<defs>
<clipPath id="clip0_0_1">
<rect width="1920" height="9959" fill="white" transform="translate(-294 -1938)"/>
</clipPath>
<clipPath id="clip1_0_1">
<rect x="-99.5" y="-277.174" width="226" height="328" rx="10" fill="white"/>
</clipPath>
<clipPath id="clip2_0_1">
<rect width="15" height="15" fill="white" transform="translate(0 0.310059)"/>
</clipPath>
</defs>
</svg>
