<svg width="109" height="109" viewBox="0 0 109 109" fill="none" xmlns="http://www.w3.org/2000/svg">
<g id="new_brand%2Felements%2Ftop_disease_icons%2Fpiles.svg" clip-path="url(#clip0_221_624)">
<g id="Group">
<g id="Group_2">
<g id="Group_3">
<path id="Vector" d="M100.588 107.816H9.20234C4.82818 107.816 1.26953 104.257 1.26953 99.8829V8.49702C1.26953 4.12285 4.82818 0.564209 9.20234 0.564209H100.588C104.962 0.564209 108.521 4.12285 108.521 8.49702V99.8829C108.521 104.257 104.962 107.816 100.588 107.816Z" fill="white" fill-opacity="0.87"/>
<path id="Vector_2" d="M9.20234 0.939331C5.03495 0.939331 1.64453 4.32975 1.64453 8.49714V99.883C1.64453 104.05 5.03495 107.441 9.20234 107.441H100.588C104.756 107.441 108.146 104.05 108.146 99.883V8.49714C108.146 4.32975 104.756 0.939331 100.588 0.939331H9.20234ZM9.20234 0.189331H100.588C105.176 0.189331 108.896 3.90887 108.896 8.49714V99.883C108.896 104.471 105.176 108.191 100.588 108.191H9.20234C4.61407 108.191 0.894531 104.471 0.894531 99.883V8.49714C0.894531 3.90887 4.61407 0.189331 9.20234 0.189331Z" fill="#E1E3E4"/>
</g>
</g>
<g id="Group_4">
<g id="Group_5">
<path id="Vector_3" d="M77.1014 37.3484C75.8622 37.3484 74.6509 36.9809 73.6205 36.2924C72.5902 35.604 71.7871 34.6255 71.3129 33.4806C70.8387 32.3357 70.7146 31.0759 70.9563 29.8605C71.1981 28.6452 71.7948 27.5288 72.6711 26.6525C73.5473 25.7763 74.6637 25.1795 75.8791 24.9378C77.0945 24.696 78.3543 24.8201 79.4992 25.2943C80.644 25.7685 81.6226 26.5716 82.311 27.602C82.9995 28.6323 83.3669 29.8437 83.3669 31.0829C83.365 32.744 82.7042 34.3365 81.5296 35.5111C80.355 36.6856 78.7625 37.3464 77.1014 37.3484ZM77.1014 26.8769C76.2708 26.8769 75.4587 27.1232 74.768 27.5847C74.0773 28.0462 73.539 28.7022 73.2212 29.4696C72.9033 30.2371 72.8201 31.0815 72.9821 31.8963C73.1442 32.711 73.5442 33.4593 74.1316 34.0467C74.719 34.6341 75.4673 35.0341 76.282 35.1962C77.0968 35.3582 77.9412 35.2751 78.7087 34.9572C79.4761 34.6393 80.1321 34.101 80.5936 33.4103C81.0551 32.7196 81.3014 31.9076 81.3014 31.0769C81.2971 29.9649 80.853 28.8997 80.0661 28.114C79.2792 27.3282 78.2135 26.8857 77.1014 26.8829V26.8769Z" fill="#00A79D"/>
</g>
<g id="Group_6">
<path id="Vector_4" d="M50.1829 59.8225L50.2594 59.9515C50.4179 60.2222 50.5901 60.4845 50.7754 60.7375C50.9254 60.958 51.1009 61.1875 51.2644 61.4035V61.411C51.9598 62.1464 52.4438 63.0559 52.6654 64.0435C52.6634 64.7033 52.4005 65.3355 51.9339 65.802C51.4674 66.2685 50.8352 66.5315 50.1754 66.5335C49.9055 66.5335 49.6373 66.4889 49.3819 66.4015C48.8885 66.2347 48.46 65.9173 48.1567 65.4939C47.8534 65.0706 47.6907 64.5628 47.6914 64.042C47.9139 63.0513 48.4 62.1391 49.0984 61.402C49.4625 60.9371 49.7991 60.4512 50.1064 59.947L50.1829 59.8225Z" fill="#8E9192"/>
</g>
<g id="Group_7">
<path id="Vector_5" d="M41.4705 46.802L40.4219 48.5746L45.1225 51.3553L46.1711 49.5827L41.4705 46.802Z" fill="#8E9192"/>
</g>
<g id="Group_8">
<path id="Vector_6" d="M44.671 52.3205L40.1797 53.4746L40.6925 55.4703L45.1838 54.3162L44.671 52.3205Z" fill="#8E9192"/>
</g>
<g id="Group_9">
<path id="Vector_7" d="M46.146 54.9937L43.4883 59.4865L45.2609 60.535L47.9186 56.0423L46.146 54.9937Z" fill="#8E9192"/>
</g>
<g id="Group_10">
<path id="Vector_8" d="M40.0239 84.1447H27.9219V62.9017H34.6164V67.7947H46.9764V72.2947C46.974 74.2327 46.2676 76.1038 44.9887 77.5599C43.7097 79.016 41.9454 79.9579 40.0239 80.2102V84.1447ZM29.9814 82.0852H37.9629V78.2272H38.9934C40.5634 78.2252 42.0685 77.6007 43.1787 76.4905C44.2888 75.3803 44.9134 73.8752 44.9154 72.3052V69.8587H32.5554V64.9657H29.9799L29.9814 82.0852Z" fill="#00A79D"/>
</g>
<path id="Vector_9" d="M73.7352 60.6074L65.0022 51.9315L71.5182 45.4154C72.3847 44.5522 72.9754 43.451 73.2151 42.2516C73.4549 41.0522 73.3329 39.8086 72.8648 38.6786C72.3967 37.5485 71.6035 36.583 70.5858 35.9045C69.5681 35.226 68.3718 34.865 67.1487 34.8674H48.1797V51.2609C48.1797 52.0902 48.4404 52.8984 48.9249 53.5714C49.4094 54.2444 50.0932 54.7479 50.8797 55.0109C51.156 55.4969 51.4971 55.943 51.8937 56.3369L63.2007 67.5704V78.1304C63.2007 79.7695 63.8518 81.3414 65.0108 82.5004C66.1698 83.6593 67.7417 84.3105 69.3807 84.3105C71.0197 84.3105 72.5916 83.6593 73.7506 82.5004C74.9096 81.3414 75.5607 79.7695 75.5607 78.1304V64.998C75.5576 63.3505 74.9011 61.7715 73.7352 60.6074ZM73.4997 78.123C73.5101 78.6706 73.4113 79.2148 73.209 79.7238C73.0066 80.2327 72.7048 80.6963 72.3212 81.0872C71.9376 81.4782 71.48 81.7888 70.9749 82.0008C70.4699 82.2128 69.9277 82.3221 69.38 82.3221C68.8322 82.3221 68.29 82.2128 67.7849 82.0008C67.2799 81.7888 66.8222 81.4782 66.4386 81.0872C66.0551 80.6963 65.7532 80.2327 65.5509 79.7238C65.3486 79.2148 65.2497 78.6706 65.2602 78.123V67.1339C65.2607 66.9984 65.2344 66.8642 65.183 66.7388C65.1315 66.6135 65.0558 66.4995 64.9602 66.4034L53.4582 54.9765C54.2249 54.7019 54.8881 54.1975 55.3574 53.5319C55.8266 52.8664 56.0791 52.0723 56.0802 51.2579V46.2899L59.6952 42.6749H63.9762V40.6154H54.0207V45.8654V51.2655C54.0207 51.7663 53.8217 52.2466 53.4675 52.6008C53.1134 52.955 52.6331 53.1539 52.1322 53.1539C51.6313 53.1539 51.151 52.955 50.7968 52.6008C50.4427 52.2466 50.2437 51.7663 50.2437 51.2655V36.9315H66.7437C66.8026 36.9365 66.8618 36.9365 66.9207 36.9315C67.1528 36.9185 67.3856 36.925 67.6167 36.951C68.5448 37.052 69.4101 37.4687 70.0677 38.1314C70.8393 38.9045 71.2727 39.9521 71.2727 41.0444C71.2727 42.1367 70.8393 43.1844 70.0677 43.9574L62.8212 51.2039C62.7252 51.2997 62.649 51.4134 62.597 51.5386C62.545 51.6638 62.5183 51.7981 62.5183 51.9337C62.5183 52.0693 62.545 52.2035 62.597 52.3287C62.649 52.454 62.7252 52.5677 62.8212 52.6634L72.2877 62.0684C73.0636 62.8433 73.501 63.8939 73.5042 64.9904L73.4997 78.123ZM56.0757 43.377V42.6749H56.7777L56.0757 43.377Z" fill="#00A79D"/>
</g>
</g>
</g>
<defs>
<clipPath id="clip0_221_624">
<rect width="108.001" height="108.001" fill="white" transform="translate(0.894531 0.189453)"/>
</clipPath>
</defs>
</svg>
