<svg width="63" height="64" viewBox="0 0 63 64" fill="none" xmlns="http://www.w3.org/2000/svg">
<g id="logo.svg">
<g id="Group">
<path id="Vector" d="M9.26114 2.16949H53.7706C55.8811 2.16949 57.5821 3.87049 57.5821 5.98099V50.4905C57.5821 52.601 55.8811 54.302 53.7706 54.302H9.26114C7.15064 54.302 5.44964 52.601 5.44964 50.4905V5.98099C5.41814 3.87049 7.15064 2.16949 9.26114 2.16949Z" fill="#00A79D"/>
<path id="Vector_2" d="M46.7126 34.5515H46.6496L37.5461 35.3075C36.9476 35.3705 36.8216 35.402 36.7271 34.6145L35.4671 21.29C35.4356 19.841 34.5221 18.5495 33.1991 18.014C31.6556 17.384 29.8601 17.8565 28.8206 19.148L13.3856 44.1275C12.4721 45.2615 12.2516 46.805 12.8501 48.1595C13.4171 49.388 14.6456 50.144 15.9686 50.1125H21.5126C22.0481 50.1125 22.4576 49.6715 22.4576 49.1675V46.3325C22.4576 45.797 22.0166 45.3875 21.5126 45.3875H19.8746C19.3391 45.3875 18.9296 44.9465 18.9296 44.4425C18.9296 44.2535 18.9926 44.096 19.0871 43.9385L29.5451 26.96C29.8286 26.519 30.3956 26.3615 30.8681 26.645C31.1201 26.8025 31.2776 27.086 31.3091 27.3695L32.1911 36.5675C32.2856 38.552 33.8921 40.127 35.9081 40.1585H36.0026L43.5311 39.5285C44.0666 39.497 44.5076 39.875 44.5706 40.4105C44.5706 40.568 44.5706 40.7255 44.5076 40.8515L42.9011 44.7575C42.7436 45.1355 42.3971 45.356 42.0191 45.356H25.0721C24.5366 45.356 24.1271 45.7655 24.1271 46.301V49.136C24.1271 49.6715 24.5681 50.081 25.0721 50.081H42.9641C44.8856 50.081 46.5866 48.7895 47.1221 46.931L50.4611 38.741C50.4611 38.741 50.4611 38.741 50.4611 38.7095V38.3C50.4611 36.2525 48.7916 34.5515 46.7126 34.5515Z" fill="white"/>
<path id="Vector_3" d="M31.499 16.9745C34.4217 16.9745 36.791 14.6052 36.791 11.6825C36.791 8.75981 34.4217 6.3905 31.499 6.3905C28.5763 6.3905 26.207 8.75981 26.207 11.6825C26.207 14.6052 28.5763 16.9745 31.499 16.9745Z" fill="#1D1A4F"/>
<path id="Vector_4" d="M6.61328 57.515C6.61328 57.1055 6.89678 56.9795 7.18028 56.9795H7.49528C7.81028 56.9795 7.96778 57.1055 8.09378 57.452L9.00728 60.413L9.92078 57.452C10.0153 57.1055 10.1728 56.9795 10.5193 56.9795H10.8343C11.1178 56.9795 11.4013 57.074 11.4013 57.515V61.2635C11.4328 61.5155 11.2438 61.736 10.9603 61.7675C10.6768 61.799 10.4878 61.61 10.4563 61.3265C10.4563 61.295 10.4563 61.2635 10.4563 61.2635V58.397L9.47978 61.4525C9.41678 61.6415 9.22778 61.7675 9.03878 61.7675C8.84978 61.799 8.66078 61.673 8.59778 61.4525L7.62128 58.397V61.2635C7.65278 61.5155 7.46378 61.736 7.18028 61.7675C6.92828 61.799 6.70778 61.61 6.67628 61.3265C6.67628 61.295 6.67628 61.2635 6.67628 61.2635L6.61328 57.515Z" fill="#1D1A4F"/>
<path id="Vector_5" d="M12.3477 57.704C12.3477 57.2315 12.5997 57.1055 12.9462 57.1055H15.4347C15.7497 57.1055 15.9702 57.2 15.9702 57.515C15.9702 57.8615 15.7497 57.9245 15.4347 57.9245H13.4187V58.9325H15.2142C15.4977 58.9325 15.7182 59.027 15.7182 59.342C15.7182 59.657 15.4977 59.7515 15.2142 59.7515H13.4187V60.8855H15.4977C15.8127 60.8855 16.0332 60.98 16.0332 61.295C16.0332 61.61 15.8127 61.7045 15.4977 61.7045H12.9777C12.5997 61.7045 12.3792 61.547 12.3792 61.106L12.3477 57.704Z" fill="#1D1A4F"/>
<path id="Vector_6" d="M16.7266 57.704C16.7266 57.2315 16.9786 57.1055 17.3251 57.1055H18.6166C19.7506 57.1055 20.8216 57.6095 20.8216 59.405C20.8216 60.854 20.0026 61.7045 18.5851 61.7045H17.3251C17.0416 61.736 16.7581 61.547 16.7266 61.232C16.7266 61.169 16.7266 61.1375 16.7266 61.0745V57.704ZM17.7661 60.854H18.6481C19.4986 60.854 19.7506 60.098 19.7506 59.405C19.7506 58.4915 19.4041 57.956 18.6166 57.956H17.7346L17.7661 60.854Z" fill="#1D1A4F"/>
<path id="Vector_7" d="M23.5625 57.515C23.5625 57.2315 23.783 56.9795 24.098 56.9795C24.3815 56.9795 24.6335 57.2 24.6335 57.515V60.8225H26.3975C26.7125 60.8225 26.933 60.98 26.933 61.2635C26.933 61.547 26.681 61.7045 26.3975 61.7045H24.1925C23.909 61.736 23.6255 61.547 23.594 61.232C23.594 61.169 23.594 61.1375 23.594 61.0745L23.5625 57.515Z" fill="#1D1A4F"/>
<path id="Vector_8" d="M27.4991 57.515C27.4676 57.2315 27.6881 56.9795 27.9716 56.948C28.2551 56.9165 28.5071 57.137 28.5386 57.4205C28.5386 57.452 28.5386 57.4835 28.5386 57.515V61.2635C28.5701 61.547 28.3496 61.799 28.0661 61.8305C27.7826 61.862 27.5306 61.6415 27.4991 61.358C27.4991 61.3265 27.4991 61.295 27.4991 61.2635V57.515Z" fill="#1D1A4F"/>
<path id="Vector_9" d="M29.5469 57.704C29.5469 57.2315 29.7989 57.1055 30.1454 57.1055H32.4764C32.7914 57.1055 33.0119 57.2 33.0119 57.515C33.0119 57.8615 32.7914 57.9245 32.4764 57.9245H30.5864V58.9955H32.1929C32.4764 58.9955 32.6969 59.0585 32.6969 59.405C32.6969 59.72 32.4764 59.8145 32.1929 59.8145H30.5864V61.2635C30.6179 61.547 30.3974 61.799 30.1139 61.8305C29.8304 61.862 29.5784 61.6415 29.5469 61.358C29.5469 61.3265 29.5469 61.295 29.5469 61.2635V57.704Z" fill="#1D1A4F"/>
<path id="Vector_10" d="M33.5781 57.704C33.5781 57.2315 33.8301 57.1055 34.1766 57.1055H36.6651C36.9801 57.1055 37.2006 57.2 37.2006 57.515C37.2006 57.8615 36.9801 57.9245 36.6651 57.9245H34.6176V58.9325H36.4131C36.6966 58.9325 36.9171 59.027 36.9171 59.342C36.9171 59.657 36.6966 59.7515 36.4131 59.7515H34.6176V60.8855H36.6966C37.0116 60.8855 37.2321 60.98 37.2321 61.295C37.2321 61.61 37.0116 61.7045 36.6966 61.7045H34.1766C33.8931 61.736 33.6096 61.547 33.5781 61.232C33.5781 61.169 33.5781 61.1375 33.5781 61.0745V57.704Z" fill="#1D1A4F"/>
<path id="Vector_11" d="M39.9414 57.704C39.9414 57.2315 40.1934 57.1055 40.5399 57.1055H43.0284C43.3434 57.1055 43.5639 57.2 43.5639 57.515C43.5639 57.8615 43.3434 57.9245 43.0284 57.9245H40.9809V58.9325H42.7764C43.0599 58.9325 43.2804 59.027 43.2804 59.342C43.2804 59.657 43.0599 59.7515 42.7764 59.7515H40.9809V60.8855H43.0599C43.3749 60.8855 43.5954 60.98 43.5954 61.295C43.5954 61.61 43.3749 61.7045 43.0599 61.7045H40.5399C40.1619 61.7045 39.9414 61.547 39.9414 61.106V57.704Z" fill="#EBFFFE"/>
<path id="Vector_12" d="M45.3597 57.326C45.4227 57.1055 45.6432 56.9795 45.8637 57.011H46.1157C46.3677 56.9795 46.6197 57.137 46.6827 57.389L47.9427 60.917C48.0057 61.043 48.0372 61.169 48.0372 61.3265C48.0372 61.5785 47.8167 61.799 47.5332 61.799C47.3127 61.8305 47.1237 61.7045 47.0607 61.5155L46.7772 60.7595H45.0762L44.7927 61.5155C44.7297 61.7045 44.5407 61.8305 44.3202 61.799C44.0682 61.8305 43.8477 61.6415 43.8477 61.3895C43.8477 61.358 43.8477 61.358 43.8477 61.3265C43.8477 61.2005 43.9107 61.043 43.9422 60.917L45.3597 57.326ZM45.9897 58.145L45.3597 60.0035H46.5882L45.9897 58.145Z" fill="#EBFFFE"/>
<path id="Vector_13" d="M51.0283 59.027C52.0048 59.2475 52.2568 59.8145 52.2568 60.35C52.2568 61.169 51.6268 61.799 50.3668 61.799C49.0438 61.799 48.4453 61.1375 48.4453 60.6335C48.4453 60.413 48.6343 60.1925 48.8548 60.1925H48.8863C49.4533 60.1925 49.2958 61.0115 50.3668 61.0115C50.9023 61.0115 51.2173 60.6965 51.2173 60.413C51.2173 60.224 51.1228 60.035 50.7763 59.9405L49.5793 59.6255C48.6343 59.3735 48.4453 58.838 48.4453 58.3655C48.4453 57.326 49.3903 56.948 50.3038 56.948C51.1228 56.948 52.0993 57.4205 52.0993 58.019C52.0993 58.271 51.8788 58.46 51.6583 58.4285H51.6268C51.1543 58.4285 51.2173 57.7355 50.2408 57.7355C49.7683 57.7355 49.4848 57.956 49.4848 58.271C49.4848 58.586 49.8628 58.6805 50.2093 58.775L51.0283 59.027Z" fill="#EBFFFE"/>
<path id="Vector_14" d="M53.9602 59.909L52.6687 57.767C52.6057 57.6725 52.5742 57.578 52.5742 57.4835C52.5742 57.2 52.8262 56.9795 53.0782 57.011C53.0782 57.011 53.0782 57.011 53.1097 57.011C53.3302 57.011 53.5192 57.1055 53.5822 57.326L54.4957 59.027L55.4092 57.326C55.4722 57.137 55.6612 57.011 55.8502 57.011C56.1337 57.011 56.3542 57.2 56.3857 57.4835C56.3857 57.578 56.3542 57.6725 56.2912 57.767L54.9997 59.909V61.2635C54.9997 61.547 54.7792 61.799 54.4642 61.799C54.1807 61.799 53.9287 61.5785 53.9287 61.2635L53.9602 59.909Z" fill="#EBFFFE"/>
</g>
</g>
</svg>
